<svg xmlns="http://www.w3.org/2000/svg" viewBox="0 0 32 32" width="32" height="32">
  <!-- Background circle with gradient -->
  <defs>
    <linearGradient id="bgGradient" x1="0%" y1="0%" x2="100%" y2="100%">
      <stop offset="0%" style="stop-color:#0f172a;stop-opacity:1" />
      <stop offset="100%" style="stop-color:#1e293b;stop-opacity:1" />
    </linearGradient>
    <linearGradient id="shieldGradient" x1="0%" y1="0%" x2="100%" y2="100%">
      <stop offset="0%" style="stop-color:#3b82f6;stop-opacity:1" />
      <stop offset="100%" style="stop-color:#1d4ed8;stop-opacity:1" />
    </linearGradient>
  </defs>
  
  <!-- Background circle -->
  <circle cx="16" cy="16" r="15" fill="url(#bgGradient)" stroke="#3b82f6" stroke-width="1.5"/>
  
  <!-- Shield base -->
  <path d="M16 4 L24 8 L24 16 C24 20 20 24 16 26 C12 24 8 20 8 16 L8 8 Z" fill="url(#shieldGradient)"/>
  
  <!-- Shield highlight -->
  <path d="M16 6 L22 9 L22 16 C22 19 19 22 16 24 C13 22 10 19 10 16 L10 9 Z" fill="#60a5fa" opacity="0.7"/>
  
  <!-- Lightning bolt -->
  <path d="M18 8 L14 16 L16 16 L14 24 L18 16 L16 16 Z" fill="#fbbf24" stroke="#f59e0b" stroke-width="0.5"/>
  
  <!-- Circuit patterns -->
  <path d="M12 12 L20 12 M12 16 L20 16 M12 20 L20 20" stroke="#ffffff" stroke-width="1" stroke-linecap="round" opacity="0.8"/>
  <path d="M14 10 L14 14 M18 14 L18 18" stroke="#ffffff" stroke-width="1" stroke-linecap="round" opacity="0.8"/>
  
  <!-- Circuit nodes -->
  <circle cx="12" cy="12" r="1" fill="#ffffff" opacity="0.9"/>
  <circle cx="20" cy="12" r="1" fill="#ffffff" opacity="0.9"/>
  <circle cx="12" cy="16" r="1" fill="#ffffff" opacity="0.9"/>
  <circle cx="20" cy="16" r="1" fill="#ffffff" opacity="0.9"/>
  <circle cx="12" cy="20" r="1" fill="#ffffff" opacity="0.9"/>
  <circle cx="20" cy="20" r="1" fill="#ffffff" opacity="0.9"/>
  
  <!-- Central security indicator -->
  <circle cx="16" cy="16" r="2" fill="#10b981" stroke="#ffffff" stroke-width="0.5"/>
  
  <!-- Small lock icon -->
  <rect x="14.5" y="18.5" width="3" height="2.5" rx="0.5" fill="#10b981" opacity="0.9"/>
  <path d="M15 18.5 L15 17 C15 16.5 15.5 16 16 16 C16.5 16 17 16.5 17 17 L17 18.5" stroke="#10b981" stroke-width="0.8" fill="none"/>
</svg> 